<svg xmlns="http://www.w3.org/2000/svg" version="1.1" width="1200px" height="686px" style="shape-rendering:geometricPrecision; text-rendering:geometricPrecision; image-rendering:optimizeQuality; fill-rule:evenodd; clip-rule:evenodd" xmlns:xlink="http://www.w3.org/1999/xlink">
<g><path style="opacity:1" fill="#239f40" d="M -0.5,-0.5 C 399.5,-0.5 799.5,-0.5 1199.5,-0.5C 1199.5,75.8333 1199.5,152.167 1199.5,228.5C 799.5,228.5 399.5,228.5 -0.5,228.5C -0.5,152.167 -0.5,75.8333 -0.5,-0.5 Z"/></g>
<g><path style="opacity:1" fill="#fefefe" d="M -0.5,228.5 C 399.5,228.5 799.5,228.5 1199.5,228.5C 1199.5,304.5 1199.5,380.5 1199.5,456.5C 799.5,456.5 399.5,456.5 -0.5,456.5C -0.5,380.5 -0.5,304.5 -0.5,228.5 Z"/></g>
<g><path style="opacity:1" fill="#1a1917" d="M 494.5,328.5 C 494.768,326.901 494.434,325.568 493.5,324.5C 498.082,289.502 514.415,261.335 542.5,240C 528.656,247.157 517.156,257.324 508,270.5C 498.546,284.385 491.713,299.385 487.5,315.5C 487.5,314.833 487.167,314.5 486.5,314.5C 495.406,276.322 517.406,248.655 552.5,231.5C 552.833,231.833 553.167,232.167 553.5,232.5C 537.467,244.699 523.634,259.033 512,275.5C 502.027,291.918 496.193,309.585 494.5,328.5 Z"/></g>
<g><path style="opacity:1" fill="#ece9e1" d="M 493.5,324.5 C 493.5,327.167 493.5,329.833 493.5,332.5C 492.512,337.64 492.179,342.974 492.5,348.5C 489.833,348.5 487.167,348.5 484.5,348.5C 484.43,337.395 485.43,326.395 487.5,315.5C 491.713,299.385 498.546,284.385 508,270.5C 517.156,257.324 528.656,247.157 542.5,240C 514.415,261.335 498.082,289.502 493.5,324.5 Z"/></g>
<g><path style="opacity:1" fill="#2d2d2d" d="M 600.5,294.5 C 600.167,294.5 599.833,294.5 599.5,294.5C 599.671,280.816 599.338,267.149 598.5,253.5C 599.5,253.5 600.5,253.5 601.5,253.5C 601.815,267.246 601.481,280.912 600.5,294.5 Z"/></g>
<g><path style="opacity:1" fill="#191919" d="M 593.5,294.5 C 590.204,281.415 587.537,268.082 585.5,254.5C 586.5,254.5 587.5,254.5 588.5,254.5C 590.353,267.806 592.02,281.139 593.5,294.5 Z"/></g>
<g><path style="opacity:1" fill="#272727" d="M 607.5,294.5 C 607.167,294.5 606.833,294.5 606.5,294.5C 607.979,281.145 609.646,267.812 611.5,254.5C 612.5,254.5 613.5,254.5 614.5,254.5C 612.164,267.841 609.831,281.175 607.5,294.5 Z"/></g>
<g><path style="opacity:1" fill="#202020" d="M 587.5,295.5 C 587.5,296.167 587.167,296.5 586.5,296.5C 582.1,283.305 577.1,270.305 571.5,257.5C 573.347,256.17 574.847,256.503 576,258.5C 579.941,270.821 583.774,283.154 587.5,295.5 Z"/></g>
<g><path style="opacity:1" fill="#2c2c2c" d="M 597.5,294.5 C 596.833,294.5 596.167,294.5 595.5,294.5C 595.674,286.923 595.007,279.423 593.5,272C 593.833,270.5 594.167,269 594.5,267.5C 595.086,267.709 595.586,268.043 596,268.5C 596.367,277.182 596.867,285.848 597.5,294.5 Z"/></g>
<g><path style="opacity:1" fill="#363636" d="M 603.5,294.5 C 603.167,294.5 602.833,294.5 602.5,294.5C 603.253,285.854 603.587,277.188 603.5,268.5C 604.5,268.5 605.5,268.5 606.5,268.5C 605.987,277.266 604.987,285.933 603.5,294.5 Z"/></g>
<g><path style="opacity:1" fill="#0e0b05" d="M 557.5,273.5 C 554.142,275.86 551.475,278.86 549.5,282.5C 547.4,279.289 545.066,276.289 542.5,273.5C 544.634,271.967 547.134,271.3 550,271.5C 552.866,271.3 555.366,271.967 557.5,273.5 Z"/></g>
<g><path style="opacity:1" fill="#1b1b1b" d="M 616.5,297.5 C 615.833,297.5 615.5,297.167 615.5,296.5C 618.457,288.586 621.957,280.919 626,273.5C 626.5,274 627,274.5 627.5,275C 623.422,282.322 619.755,289.822 616.5,297.5 Z"/></g>
<g><path style="opacity:1" fill="#0d0a04" d="M 540.5,274.5 C 542.671,276.841 544.338,279.507 545.5,282.5C 544.622,284.939 542.955,285.772 540.5,285C 538.255,282.269 536.255,279.436 534.5,276.5C 536.102,274.926 538.102,274.259 540.5,274.5 Z"/></g>
<g><path style="opacity:1" fill="#e9c115" d="M 542.5,273.5 C 545.066,276.289 547.4,279.289 549.5,282.5C 551.475,278.86 554.142,275.86 557.5,273.5C 558.492,273.328 559.158,273.662 559.5,274.5C 557.164,276.004 555.331,278.004 554,280.5C 553.364,283.522 554.53,285.022 557.5,285C 559.05,281.949 561.383,279.782 564.5,278.5C 565.492,278.328 566.158,278.662 566.5,279.5C 564.229,281.266 562.063,283.266 560,285.5C 559.691,287.391 560.525,288.725 562.5,289.5C 564.638,287.265 566.971,285.265 569.5,283.5C 570.167,283.5 570.833,283.5 571.5,283.5C 571.833,284.167 572.167,284.833 572.5,285.5C 567.763,286.256 565.763,288.756 566.5,293C 568.134,293.494 569.801,293.66 571.5,293.5C 571.762,292.022 571.429,290.689 570.5,289.5C 568.471,290.629 568.137,290.129 569.5,288C 570.793,287.51 572.127,287.343 573.5,287.5C 574.815,292.836 572.815,295.503 567.5,295.5C 567.281,296.675 567.614,297.675 568.5,298.5C 570.261,299.035 571.594,300.035 572.5,301.5C 571.833,301.5 571.5,301.833 571.5,302.5C 570.167,302.5 568.833,302.5 567.5,302.5C 567.5,304.167 567.5,305.833 567.5,307.5C 569.39,307.297 570.89,307.963 572,309.5C 572.5,321.495 572.667,333.495 572.5,345.5C 575.344,345.657 577.011,344.324 577.5,341.5C 578.167,334.5 578.833,327.5 579.5,320.5C 579.334,324.514 579.501,328.514 580,332.5C 584.354,339.826 582.854,345.659 575.5,350C 567.825,351.614 560.492,354.114 553.5,357.5C 553.5,356.833 553.167,356.5 552.5,356.5C 552.5,356.167 552.5,355.833 552.5,355.5C 553.482,354.859 554.482,354.193 555.5,353.5C 556.496,347.202 556.83,340.868 556.5,334.5C 555.5,334.5 554.5,334.5 553.5,334.5C 550.5,333.833 547.5,333.167 544.5,332.5C 549.214,332.647 553.881,332.314 558.5,331.5C 558.334,338.175 558.5,344.842 559,351.5C 560.085,350.707 561.252,350.04 562.5,349.5C 563.833,338.5 563.833,327.5 562.5,316.5C 561.703,320.964 559.036,323.297 554.5,323.5C 549.87,322.984 545.203,322.817 540.5,323C 538.959,321.421 537.792,319.587 537,317.5C 536.5,337.831 536.333,358.164 536.5,378.5C 534.95,377.559 533.284,376.893 531.5,376.5C 530.26,374.012 528.26,372.179 525.5,371C 518.047,370.303 510.714,368.97 503.5,367C 501.963,365.89 501.297,364.39 501.5,362.5C 509.501,363.833 517.501,365.167 525.5,366.5C 525.5,365.5 525.5,364.5 525.5,363.5C 521.434,363.693 517.434,363.36 513.5,362.5C 516.962,361.518 520.629,361.185 524.5,361.5C 524.5,360.5 524.5,359.5 524.5,358.5C 524.5,357.833 524.833,357.5 525.5,357.5C 526.331,341.338 526.831,325.005 527,308.5C 530.207,307.745 531.707,305.745 531.5,302.5C 527.453,302.355 524.453,304.022 522.5,307.5C 521.655,306.329 520.989,304.995 520.5,303.5C 523.811,301.844 527.145,300.178 530.5,298.5C 531.386,297.675 531.719,296.675 531.5,295.5C 529.856,295.714 528.356,295.38 527,294.5C 526.503,292.19 526.337,289.857 526.5,287.5C 527.833,287.5 529.167,287.5 530.5,287.5C 529.01,285.72 527.01,285.054 524.5,285.5C 525.167,284.167 526.167,283.167 527.5,282.5C 530.557,284.044 533.224,286.211 535.5,289C 536.448,289.483 537.448,289.649 538.5,289.5C 537.77,285.094 535.437,281.761 531.5,279.5C 532.167,278.167 533.167,277.167 534.5,276.5C 536.255,279.436 538.255,282.269 540.5,285C 542.955,285.772 544.622,284.939 545.5,282.5C 544.338,279.507 542.671,276.841 540.5,274.5C 540.842,273.662 541.508,273.328 542.5,273.5 Z"/></g>
<g><path style="opacity:1" fill="#120e03" d="M 559.5,274.5 C 561.749,275.08 563.415,276.413 564.5,278.5C 561.383,279.782 559.05,281.949 557.5,285C 554.53,285.022 553.364,283.522 554,280.5C 555.331,278.004 557.164,276.004 559.5,274.5 Z"/></g>
<g><path style="opacity:1" fill="#1c1c1c" d="M 571.5,283.5 C 568.222,277.113 564.556,270.947 560.5,265C 561.635,264.251 562.635,264.417 563.5,265.5C 566.755,271.008 569.755,276.675 572.5,282.5C 572.376,283.107 572.043,283.44 571.5,283.5 Z"/></g>
<g><path style="opacity:1" fill="#1f1f1f" d="M 613.5,296.5 C 612.833,296.5 612.5,296.167 612.5,295.5C 616.04,284.083 619.873,272.749 624,261.5C 625.834,257.693 626.834,257.693 627,261.5C 622.003,272.994 617.503,284.661 613.5,296.5 Z"/></g>
<g><path style="opacity:1" fill="#1d1d1d" d="M 624.5,303.5 C 623.662,303.158 623.328,302.492 623.5,301.5C 632.171,292.016 640.505,282.183 648.5,272C 649.332,271.312 649.998,271.479 650.5,272.5C 641.81,282.853 633.144,293.186 624.5,303.5 Z"/></g>
<g><path style="opacity:1" fill="#130f03" d="M 531.5,279.5 C 535.437,281.761 537.77,285.094 538.5,289.5C 537.448,289.649 536.448,289.483 535.5,289C 533.224,286.211 530.557,284.044 527.5,282.5C 528.436,281.026 529.77,280.026 531.5,279.5 Z"/></g>
<g><path style="opacity:1" fill="#0f0c02" d="M 566.5,279.5 C 568.262,280.262 569.262,281.596 569.5,283.5C 566.971,285.265 564.638,287.265 562.5,289.5C 560.525,288.725 559.691,287.391 560,285.5C 562.063,283.266 564.229,281.266 566.5,279.5 Z"/></g>
<g><path style="opacity:1" fill="#1c1c1c" d="M 619.5,299.5 C 618.833,299.5 618.5,299.167 618.5,298.5C 624.742,287.687 630.742,276.687 636.5,265.5C 637.576,264.344 638.576,264.511 639.5,266C 632.696,277.112 626.029,288.278 619.5,299.5 Z"/></g>
<g><path style="opacity:1" fill="#2f2f2e" d="M 610.5,295.5 C 609.508,295.672 608.842,295.338 608.5,294.5C 610.503,286.505 612.836,278.505 615.5,270.5C 615.833,271.167 616.167,271.833 616.5,272.5C 614.083,280.079 612.083,287.745 610.5,295.5 Z"/></g>
<g><path style="opacity:1" fill="#2f2f2f" d="M 590.5,295.5 C 590.167,295.5 589.833,295.5 589.5,295.5C 587.547,287.074 585.214,278.74 582.5,270.5C 582.833,270.167 583.167,269.833 583.5,269.5C 586.645,277.938 588.979,286.605 590.5,295.5 Z"/></g>
<g><path style="opacity:1" fill="#1d1d1d" d="M 622.5,300.5 C 621.508,300.672 620.842,300.338 620.5,299.5C 625.476,292.852 630.476,286.185 635.5,279.5C 636.521,280.002 636.688,280.668 636,281.5C 631.49,287.863 626.99,294.196 622.5,300.5 Z"/></g>
<g><path style="opacity:1" fill="#110e07" d="M 524.5,285.5 C 527.01,285.054 529.01,285.72 530.5,287.5C 529.167,287.5 527.833,287.5 526.5,287.5C 526.337,289.857 526.503,292.19 527,294.5C 528.356,295.38 529.856,295.714 531.5,295.5C 531.719,296.675 531.386,297.675 530.5,298.5C 527.145,300.178 523.811,301.844 520.5,303.5C 520.332,299.831 521.332,296.498 523.5,293.5C 521.904,290.433 522.237,287.766 524.5,285.5 Z"/></g>
<g><path style="opacity:1" fill="#120f05" d="M 572.5,285.5 C 574.833,285.833 576.167,287.167 576.5,289.5C 576.567,291.401 576.233,293.234 575.5,295C 577.013,296.879 577.679,299.046 577.5,301.5C 577.649,302.552 577.483,303.552 577,304.5C 575.729,303.117 574.229,302.117 572.5,301.5C 571.594,300.035 570.261,299.035 568.5,298.5C 567.614,297.675 567.281,296.675 567.5,295.5C 572.815,295.503 574.815,292.836 573.5,287.5C 572.127,287.343 570.793,287.51 569.5,288C 568.137,290.129 568.471,290.629 570.5,289.5C 571.429,290.689 571.762,292.022 571.5,293.5C 569.801,293.66 568.134,293.494 566.5,293C 565.763,288.756 567.763,286.256 572.5,285.5 Z"/></g>
<g><path style="opacity:1" fill="#232322" d="M 627.5,305.5 C 626.508,305.672 625.842,305.338 625.5,304.5C 632.11,298.627 638.277,292.294 644,285.5C 645.23,286.275 645.563,287.275 645,288.5C 638.663,293.671 632.83,299.337 627.5,305.5 Z"/></g>
<g><path style="opacity:1" fill="#171203" d="M 530.5,287.5 C 531.649,287.791 532.316,288.624 532.5,290C 532.576,292.756 531.243,293.923 528.5,293.5C 528.614,291.282 529.28,289.282 530.5,287.5 Z"/></g>
<g><path style="opacity:1" fill="#262626" d="M 582.5,294.5 C 578.941,288.386 575.608,282.053 572.5,275.5C 574.325,274.429 575.492,275.096 576,277.5C 578.471,283.085 580.638,288.752 582.5,294.5 Z"/></g>
<g><path style="opacity:1" fill="#1b1b1b" d="M 632.5,313.5 C 631.833,313.5 631.5,313.167 631.5,312.5C 643.076,306.259 654.41,299.593 665.5,292.5C 665.833,293 666.167,293.5 666.5,294C 655.657,301.258 644.324,307.758 632.5,313.5 Z"/></g>
<g><path style="opacity:1" fill="#c1c0bf" d="M 576.5,289.5 C 578.07,292.314 579.403,295.314 580.5,298.5C 579.833,299.833 578.833,300.833 577.5,301.5C 577.679,299.046 577.013,296.879 575.5,295C 576.233,293.234 576.567,291.401 576.5,289.5 Z"/></g>
<g><path style="opacity:1" fill="#f6cb15" d="M 593.5,294.5 C 594.167,294.5 594.833,294.5 595.5,294.5C 596.167,294.5 596.833,294.5 597.5,294.5C 598.167,294.5 598.833,294.5 599.5,294.5C 599.833,294.5 600.167,294.5 600.5,294.5C 601.167,294.5 601.833,294.5 602.5,294.5C 602.833,294.5 603.167,294.5 603.5,294.5C 604.5,294.5 605.5,294.5 606.5,294.5C 606.833,294.5 607.167,294.5 607.5,294.5C 607.833,294.5 608.167,294.5 608.5,294.5C 608.842,295.338 609.508,295.672 610.5,295.5C 611.167,295.5 611.833,295.5 612.5,295.5C 612.5,296.167 612.833,296.5 613.5,296.5C 614.167,296.5 614.833,296.5 615.5,296.5C 615.5,297.167 615.833,297.5 616.5,297.5C 617.167,297.833 617.833,298.167 618.5,298.5C 618.5,299.167 618.833,299.5 619.5,299.5C 619.833,299.5 620.167,299.5 620.5,299.5C 620.842,300.338 621.508,300.672 622.5,300.5C 622.5,301.167 622.833,301.5 623.5,301.5C 623.328,302.492 623.662,303.158 624.5,303.5C 625.167,303.5 625.5,303.833 625.5,304.5C 625.842,305.338 626.508,305.672 627.5,305.5C 627.5,305.833 627.5,306.167 627.5,306.5C 627.5,307.833 628.167,308.5 629.5,308.5C 629.5,309.167 629.833,309.5 630.5,309.5C 630.5,310.167 630.833,310.5 631.5,310.5C 631.5,311.167 631.5,311.833 631.5,312.5C 631.5,313.167 631.833,313.5 632.5,313.5C 632.5,314.167 632.833,314.5 633.5,314.5C 633.328,315.492 633.662,316.158 634.5,316.5C 634.5,317.167 634.5,317.833 634.5,318.5C 634.5,319.167 634.833,319.5 635.5,319.5C 635.5,320.167 635.5,320.833 635.5,321.5C 635.5,322.167 635.833,322.5 636.5,322.5C 636.328,323.492 636.662,324.158 637.5,324.5C 637.5,324.833 637.5,325.167 637.5,325.5C 637.5,326.167 637.5,326.833 637.5,327.5C 628.994,327.634 620.494,327.967 612,328.5C 606.192,328.624 600.526,327.957 595,326.5C 593.731,327.905 593.231,329.571 593.5,331.5C 614.167,331.5 634.833,331.5 655.5,331.5C 659.285,333.266 663.285,334.766 667.5,336C 679.708,342.604 692.041,348.937 704.5,355C 716.914,356.589 720.414,351.755 715,340.5C 704,331.833 693,323.167 682,314.5C 678.587,310.092 677.087,305.092 677.5,299.5C 678.167,300.833 678.833,302.167 679.5,303.5C 680.412,307.589 682.412,311.089 685.5,314C 692.996,319.249 700.663,324.249 708.5,329C 711.949,331.482 715.116,334.315 718,337.5C 723.28,345.426 722.446,352.593 715.5,359C 710.238,360.439 704.904,360.772 699.5,360C 693.094,357.921 686.761,355.754 680.5,353.5C 681.874,357.684 682.54,362.018 682.5,366.5C 682.255,371.565 681.588,376.565 680.5,381.5C 683.717,395.386 681.884,396.052 675,383.5C 675.172,375.152 675.505,366.819 676,358.5C 674.825,354.456 672.992,350.789 670.5,347.5C 670.167,347.833 669.833,348.167 669.5,348.5C 670.667,350.833 671.833,353.167 673,355.5C 673.659,362.592 673.159,369.592 671.5,376.5C 671.331,380.817 672.331,384.817 674.5,388.5C 674.737,389.791 674.404,390.791 673.5,391.5C 672.119,387.951 670.119,384.784 667.5,382C 665.833,381.667 664.167,381.333 662.5,381C 661.315,379.647 659.981,378.48 658.5,377.5C 657.895,380.306 656.562,382.64 654.5,384.5C 653.447,383.562 652.78,382.395 652.5,381C 655.285,376.349 653.952,373.016 648.5,371C 646.047,370.262 643.547,369.762 641,369.5C 628.104,373.576 614.938,376.409 601.5,378C 592.419,378.882 583.419,378.382 574.5,376.5C 571.623,376.381 569.956,377.714 569.5,380.5C 567.833,381.167 566.167,381.833 564.5,382.5C 570.721,377.269 574.388,370.602 575.5,362.5C 575.167,361.167 574.833,359.833 574.5,358.5C 573.072,368.577 568.072,376.244 559.5,381.5C 561.396,383.881 561.729,386.381 560.5,389C 559.167,389.667 557.833,389.667 556.5,389C 555.266,386.076 553.599,383.409 551.5,381C 548.593,380.282 545.926,380.782 543.5,382.5C 543.5,381.833 543.167,381.5 542.5,381.5C 544.743,379.627 544.91,377.627 543,375.5C 542.153,377.193 541.32,378.86 540.5,380.5C 539.833,380.167 539.167,379.833 538.5,379.5C 539.045,377.407 539.878,375.407 541,373.5C 541.167,359.488 541.667,345.488 542.5,331.5C 543.183,331.863 543.85,332.196 544.5,332.5C 547.5,333.167 550.5,333.833 553.5,334.5C 552.508,334.328 551.842,334.662 551.5,335.5C 550.835,338.817 550.501,342.317 550.5,346C 550.512,349.902 551.179,353.402 552.5,356.5C 553.167,356.5 553.5,356.833 553.5,357.5C 548.549,361.741 546.716,367.074 548,373.5C 551.475,379.155 555.975,379.989 561.5,376C 566.702,371.562 568.369,366.062 566.5,359.5C 565.042,362.372 563.875,365.372 563,368.5C 559.721,374.091 555.721,374.758 551,370.5C 550.333,368.5 550.333,366.5 551,364.5C 553.205,361.96 555.705,359.793 558.5,358C 564.833,356.333 571.167,354.667 577.5,353C 585.095,349.527 587.595,343.694 585,335.5C 584.535,334.069 583.701,332.903 582.5,332C 584.523,328.817 585.023,325.317 584,321.5C 582.961,320.29 581.794,319.29 580.5,318.5C 579.791,317.596 578.791,317.263 577.5,317.5C 578.509,311.199 576.509,306.199 571.5,302.5C 571.5,301.833 571.833,301.5 572.5,301.5C 574.229,302.117 575.729,303.117 577,304.5C 577.483,303.552 577.649,302.552 577.5,301.5C 578.833,300.833 579.833,299.833 580.5,298.5C 581.492,298.672 582.158,298.338 582.5,297.5C 583.925,299.031 584.591,298.698 584.5,296.5C 585.167,296.5 585.833,296.5 586.5,296.5C 587.167,296.5 587.5,296.167 587.5,295.5C 588.167,295.5 588.833,295.5 589.5,295.5C 589.833,295.5 590.167,295.5 590.5,295.5C 591.791,295.737 592.791,295.404 593.5,294.5 Z"/></g>
<g><path style="opacity:1" fill="#20201e" d="M 629.5,308.5 C 628.167,308.5 627.5,307.833 627.5,306.5C 636.808,299.493 645.808,291.993 654.5,284C 656.01,283.15 657.51,282.317 659,281.5C 659.5,281.833 660,282.167 660.5,282.5C 650.147,291.19 639.814,299.856 629.5,308.5 Z"/></g>
<g><path style="opacity:1" fill="#c8a512" d="M 699.5,288.5 C 703.587,290.43 707.92,291.93 712.5,293C 719.525,303.379 717.192,305.379 705.5,299C 703.887,296.772 703.22,294.272 703.5,291.5C 698.204,290.491 692.871,290.324 687.5,291C 681.422,292.99 678.755,297.157 679.5,303.5C 678.833,302.167 678.167,300.833 677.5,299.5C 678.688,293.48 682.355,289.98 688.5,289C 692.152,288.501 695.818,288.335 699.5,288.5 Z"/></g>
<g><path style="opacity:1" fill="#5d5748" d="M 582.5,294.5 C 583.167,295.167 583.833,295.833 584.5,296.5C 584.591,298.698 583.925,299.031 582.5,297.5C 582.5,296.5 582.5,295.5 582.5,294.5 Z"/></g>
<g><path style="opacity:1" fill="#0b0801" d="M 554.5,298.5 C 556.777,297.629 559.11,297.962 561.5,299.5C 560.278,301.978 558.278,302.978 555.5,302.5C 555.768,300.901 555.434,299.568 554.5,298.5 Z"/></g>
<g><path style="opacity:1" fill="#1a1504" d="M 538.5,298.5 C 540.5,298.5 542.5,298.5 544.5,298.5C 544.785,300.288 544.452,301.955 543.5,303.5C 541.49,302.498 539.49,301.498 537.5,300.5C 537.863,299.817 538.196,299.15 538.5,298.5 Z"/></g>
<g><path style="opacity:1" fill="#1d1d1d" d="M 631.5,310.5 C 630.833,310.5 630.5,310.167 630.5,309.5C 637.215,304.387 644.048,299.387 651,294.5C 652.824,295.749 652.657,296.915 650.5,298C 644.138,302.177 637.805,306.344 631.5,310.5 Z"/></g>
<g><path style="opacity:1" fill="#130f06" d="M 525.5,357.5 C 521.475,341.011 520.475,324.344 522.5,307.5C 524.453,304.022 527.453,302.355 531.5,302.5C 531.707,305.745 530.207,307.745 527,308.5C 526.831,325.005 526.331,341.338 525.5,357.5 Z"/></g>
<g><path style="opacity:1" fill="#090601" d="M 571.5,302.5 C 576.509,306.199 578.509,311.199 577.5,317.5C 577.5,325.5 577.5,333.5 577.5,341.5C 577.011,344.324 575.344,345.657 572.5,345.5C 572.667,333.495 572.5,321.495 572,309.5C 570.89,307.963 569.39,307.297 567.5,307.5C 567.5,305.833 567.5,304.167 567.5,302.5C 568.833,302.5 570.167,302.5 571.5,302.5 Z"/></g>
<g><path style="opacity:1" fill="#3f340c" d="M 539.5,305.5 C 541.983,305.73 542.483,306.397 541,307.5C 539.97,307.164 539.47,306.497 539.5,305.5 Z"/></g>
<g><path style="opacity:1" fill="#42370c" d="M 558.5,304.5 C 559.688,306.496 559.021,307.329 556.5,307C 557.381,306.292 558.047,305.458 558.5,304.5 Z"/></g>
<g><path style="opacity:1" fill="#1b1504" d="M 551.5,319.5 C 548.575,320.639 545.575,321.139 542.5,321C 539.615,319.067 538.948,316.567 540.5,313.5C 540.551,319.067 543.051,320.734 548,318.5C 548.798,316.741 548.631,315.074 547.5,313.5C 545.157,314.996 543.824,314.329 543.5,311.5C 544.922,306.821 546.255,306.654 547.5,311C 549.134,311.494 550.801,311.66 552.5,311.5C 552.215,309.712 552.548,308.045 553.5,306.5C 555.339,308.527 555.839,310.86 555,313.5C 553.644,314.38 552.144,314.714 550.5,314.5C 550.366,316.292 550.699,317.958 551.5,319.5 Z"/></g>
<g><path style="opacity:1" fill="#151102" d="M 537.5,308.5 C 539.103,308.312 540.437,308.812 541.5,310C 539.537,310.844 538.204,310.344 537.5,308.5 Z"/></g>
<g><path style="opacity:1" fill="#332a0a" d="M 557.5,309.5 C 559.035,308.212 560.701,308.212 562.5,309.5C 560.833,310.666 559.166,310.666 557.5,309.5 Z"/></g>
<g><path style="opacity:1" fill="#050300" d="M 565.5,309.5 C 567.39,309.297 568.89,309.963 570,311.5C 570.833,323.514 570.666,335.514 569.5,347.5C 568.264,348.246 566.93,348.579 565.5,348.5C 565.5,335.5 565.5,322.5 565.5,309.5 Z"/></g>
<g><path style="opacity:1" fill="#100c02" d="M 529.5,310.5 C 531.124,310.36 532.29,311.027 533,312.5C 534.401,332.831 534.568,353.164 533.5,373.5C 531.806,371.446 530.639,369.112 530,366.5C 529.5,347.836 529.333,329.17 529.5,310.5 Z"/></g>
<g><path style="opacity:1" fill="#212121" d="M 634.5,316.5 C 633.662,316.158 633.328,315.492 633.5,314.5C 640.716,311.894 647.716,308.727 654.5,305C 655.635,304.251 656.635,304.417 657.5,305.5C 649.851,309.373 642.185,313.04 634.5,316.5 Z"/></g>
<g><path style="opacity:1" fill="#1d1d1c" d="M 635.5,319.5 C 634.833,319.5 634.5,319.167 634.5,318.5C 646.141,314.016 657.808,309.516 669.5,305C 670.635,304.251 671.635,304.417 672.5,305.5C 672.291,306.086 671.957,306.586 671.5,307C 659.373,310.902 647.373,315.068 635.5,319.5 Z"/></g>
<g><path style="opacity:1" fill="#080601" d="M 544.5,332.5 C 543.85,332.196 543.183,331.863 542.5,331.5C 541.667,345.488 541.167,359.488 541,373.5C 539.878,375.407 539.045,377.407 538.5,379.5C 537.833,379.167 537.167,378.833 536.5,378.5C 536.333,358.164 536.5,337.831 537,317.5C 537.792,319.587 538.959,321.421 540.5,323C 545.203,322.817 549.87,322.984 554.5,323.5C 559.036,323.297 561.703,320.964 562.5,316.5C 563.833,327.5 563.833,338.5 562.5,349.5C 561.252,350.04 560.085,350.707 559,351.5C 558.5,344.842 558.334,338.175 558.5,331.5C 553.881,332.314 549.214,332.647 544.5,332.5 Z"/></g>
<g><path style="opacity:1" fill="#221c07" d="M 551.5,319.5 C 556.272,320.397 558.605,318.397 558.5,313.5C 559.706,315.484 559.706,317.484 558.5,319.5C 556.027,320.797 553.693,320.797 551.5,319.5 Z"/></g>
<g><path style="opacity:1" fill="#161616" d="M 655.5,322.5 C 654.508,322.672 653.842,322.338 653.5,321.5C 659.881,320.424 666.214,319.09 672.5,317.5C 673.5,317.833 674.5,318.167 675.5,318.5C 668.917,320.264 662.251,321.597 655.5,322.5 Z"/></g>
<g><path style="opacity:1" fill="#0f0e0b" d="M 486.5,314.5 C 487.167,314.5 487.5,314.833 487.5,315.5C 485.43,326.395 484.43,337.395 484.5,348.5C 487.287,349.477 490.287,349.81 493.5,349.5C 493.5,343.833 493.5,338.167 493.5,332.5C 493.5,329.833 493.5,327.167 493.5,324.5C 494.434,325.568 494.768,326.901 494.5,328.5C 494.5,335.167 494.5,341.833 494.5,348.5C 495.873,348.657 497.207,348.49 498.5,348C 499.155,346.513 500.155,345.347 501.5,344.5C 503.802,349.735 502.135,352.568 496.5,353C 505.126,356.292 514.126,358.126 523.5,358.5C 521.603,359.805 519.269,360.471 516.5,360.5C 512.507,360.61 508.674,359.943 505,358.5C 501.937,358.935 501.77,359.768 504.5,361C 507.513,361.502 510.513,362.002 513.5,362.5C 517.434,363.36 521.434,363.693 525.5,363.5C 525.5,364.5 525.5,365.5 525.5,366.5C 517.501,365.167 509.501,363.833 501.5,362.5C 501.297,364.39 501.963,365.89 503.5,367C 510.714,368.97 518.047,370.303 525.5,371C 528.26,372.179 530.26,374.012 531.5,376.5C 524.631,375.95 517.965,374.45 511.5,372C 506.463,371.337 501.463,371.504 496.5,372.5C 496.278,381.55 491.945,384.383 483.5,381C 480.019,377.603 479.686,373.936 482.5,370C 481.069,369.535 479.903,368.701 479,367.5C 478.503,364.854 478.336,362.187 478.5,359.5C 477.855,356.453 478.855,354.287 481.5,353C 480.5,352.333 479.5,352.333 478.5,353C 477.915,354.302 477.249,355.469 476.5,356.5C 473.769,350.358 475.769,347.691 482.5,348.5C 482.311,336.97 483.645,325.637 486.5,314.5 Z"/></g>
<g><path style="opacity:1" fill="#2b2b2a" d="M 636.5,322.5 C 635.833,322.5 635.5,322.167 635.5,321.5C 643.604,319.078 651.771,316.745 660,314.5C 660.5,314.833 661,315.167 661.5,315.5C 653.516,318.914 645.183,321.247 636.5,322.5 Z"/></g>
<g><path style="opacity:1" fill="#060400" d="M 587.5,324.5 C 589.117,325.038 590.784,325.371 592.5,325.5C 592.5,327.167 592.5,328.833 592.5,330.5C 590.833,330.5 589.167,330.5 587.5,330.5C 587.5,328.5 587.5,326.5 587.5,324.5 Z"/></g>
<g><path style="opacity:1" fill="#444444" d="M 653.5,321.5 C 653.842,322.338 654.508,322.672 655.5,322.5C 649.75,324.229 643.75,325.229 637.5,325.5C 637.5,325.167 637.5,324.833 637.5,324.5C 642.833,323.5 648.167,322.5 653.5,321.5 Z"/></g>
<g><path style="opacity:1" fill="#777777" d="M 655.5,326.5 C 658.024,325.2 660.691,325.2 663.5,326.5C 663.376,327.107 663.043,327.44 662.5,327.5C 660.393,326.532 658.059,326.198 655.5,326.5 Z"/></g>
<g><path style="opacity:1" fill="#221f16" d="M 699.5,288.5 C 695.818,288.335 692.152,288.501 688.5,289C 682.355,289.98 678.688,293.48 677.5,299.5C 677.087,305.092 678.587,310.092 682,314.5C 693,323.167 704,331.833 715,340.5C 720.414,351.755 716.914,356.589 704.5,355C 692.041,348.937 679.708,342.604 667.5,336C 663.285,334.766 659.285,333.266 655.5,331.5C 656.167,331.5 656.5,331.167 656.5,330.5C 657.708,331.234 659.041,331.567 660.5,331.5C 661.568,332.434 662.901,332.768 664.5,332.5C 678.148,338.492 691.481,345.325 704.5,353C 715.386,354.402 718.22,350.236 713,340.5C 702.047,332.548 691.38,324.215 681,315.5C 673.567,306.717 673.733,298.217 681.5,290C 687.427,287.363 693.427,286.863 699.5,288.5 Z"/></g>
<g><path style="opacity:1" fill="#dcb613" d="M 547.5,327.5 C 550.568,327.547 553.568,328.047 556.5,329C 552.778,329.238 549.111,329.738 545.5,330.5C 545.167,330.167 544.833,329.833 544.5,329.5C 545.602,328.824 546.602,328.158 547.5,327.5 Z"/></g>
<g><path style="opacity:1" fill="#110d03" d="M 637.5,327.5 C 641.179,327.724 644.846,328.058 648.5,328.5C 648.842,329.338 649.508,329.672 650.5,329.5C 652.5,329.833 654.5,330.167 656.5,330.5C 656.5,331.167 656.167,331.5 655.5,331.5C 634.833,331.5 614.167,331.5 593.5,331.5C 593.231,329.571 593.731,327.905 595,326.5C 600.526,327.957 606.192,328.624 612,328.5C 620.494,327.967 628.994,327.634 637.5,327.5 Z"/></g>
<g><path style="opacity:1" fill="#4d4d4d" d="M 655.5,326.5 C 658.059,326.198 660.393,326.532 662.5,327.5C 658.5,328.167 654.5,328.833 650.5,329.5C 649.508,329.672 648.842,329.338 648.5,328.5C 649.738,328.19 649.738,327.69 648.5,327C 650.81,326.503 653.143,326.337 655.5,326.5 Z"/></g>
<g><path style="opacity:1" fill="#ad8f0f" d="M 577.5,317.5 C 578.791,317.263 579.791,317.596 580.5,318.5C 579.662,318.842 579.328,319.508 579.5,320.5C 578.833,327.5 578.167,334.5 577.5,341.5C 577.5,333.5 577.5,325.5 577.5,317.5 Z"/></g>
<g><path style="opacity:1" fill="#5d5d5d" d="M 664.5,332.5 C 662.901,332.768 661.568,332.434 660.5,331.5C 666.292,330.031 671.958,330.198 677.5,332C 673.179,332.499 668.846,332.666 664.5,332.5 Z"/></g>
<g><path style="opacity:1" fill="#120e02" d="M 580.5,318.5 C 581.794,319.29 582.961,320.29 584,321.5C 585.023,325.317 584.523,328.817 582.5,332C 583.701,332.903 584.535,334.069 585,335.5C 587.595,343.694 585.095,349.527 577.5,353C 571.167,354.667 564.833,356.333 558.5,358C 555.705,359.793 553.205,361.96 551,364.5C 550.333,366.5 550.333,368.5 551,370.5C 555.721,374.758 559.721,374.091 563,368.5C 563.875,365.372 565.042,362.372 566.5,359.5C 568.369,366.062 566.702,371.562 561.5,376C 555.975,379.989 551.475,379.155 548,373.5C 546.716,367.074 548.549,361.741 553.5,357.5C 560.492,354.114 567.825,351.614 575.5,350C 582.854,345.659 584.354,339.826 580,332.5C 579.501,328.514 579.334,324.514 579.5,320.5C 579.328,319.508 579.662,318.842 580.5,318.5 Z"/></g>
<g><path style="opacity:1" fill="#151103" d="M 553.5,334.5 C 554.5,334.5 555.5,334.5 556.5,334.5C 556.83,340.868 556.496,347.202 555.5,353.5C 554.482,354.193 553.482,354.859 552.5,355.5C 551.509,349.021 551.176,342.354 551.5,335.5C 551.842,334.662 552.508,334.328 553.5,334.5 Z"/></g>
<g><path style="opacity:1" fill="#120e02" d="M 544.5,335.5 C 546.167,335.5 547.833,335.5 549.5,335.5C 549.666,343.84 549.5,352.173 549,360.5C 547.198,361.789 546.031,363.456 545.5,365.5C 544.506,355.681 544.173,345.681 544.5,335.5 Z"/></g>
<g><path style="opacity:1" fill="#1c1605" d="M 639.5,338.5 C 640.496,338.414 641.329,338.748 642,339.5C 642.333,345.5 642.667,351.5 643,357.5C 647.021,364.067 652.854,366.567 660.5,365C 664.162,360.179 664.495,355.012 661.5,349.5C 663.006,348.253 664.506,348.253 666,349.5C 670.684,363.464 665.851,369.63 651.5,368C 645.233,366.066 641.399,361.9 640,355.5C 639.501,349.843 639.334,344.176 639.5,338.5 Z"/></g>
<g><path style="opacity:1" fill="#645c3c" d="M 493.5,332.5 C 493.5,338.167 493.5,343.833 493.5,349.5C 490.287,349.81 487.287,349.477 484.5,348.5C 487.167,348.5 489.833,348.5 492.5,348.5C 492.179,342.974 492.512,337.64 493.5,332.5 Z"/></g>
<g><path style="opacity:1" fill="#4e4007" d="M 544.5,335.5 C 544.173,345.681 544.506,355.681 545.5,365.5C 545.217,366.289 544.717,366.956 544,367.5C 543.175,356.659 543.341,345.992 544.5,335.5 Z"/></g>
<g><path style="opacity:1" fill="#615008" d="M 551.5,335.5 C 551.176,342.354 551.509,349.021 552.5,355.5C 552.5,355.833 552.5,356.167 552.5,356.5C 551.179,353.402 550.512,349.902 550.5,346C 550.501,342.317 550.835,338.817 551.5,335.5 Z"/></g>
<g><path style="opacity:1" fill="#17140e" d="M 699.5,288.5 C 703.947,288.825 708.28,289.658 712.5,291C 715.461,294.417 717.794,298.25 719.5,302.5C 709.907,305.608 703.907,302.442 701.5,293C 695.683,290.802 690.017,291.135 684.5,294C 680.279,297.822 679.446,302.322 682,307.5C 691.041,316.543 701.208,324.043 712.5,330C 717.475,333.97 721.309,338.803 724,344.5C 724.65,353.861 720.483,360.027 711.5,363C 708.5,363.667 705.5,363.667 702.5,363C 696.539,361.176 690.539,359.676 684.5,358.5C 684.602,367.594 684.102,376.594 683,385.5C 683.956,386.579 684.789,387.745 685.5,389C 688.994,390.579 692.327,392.413 695.5,394.5C 696.33,399.29 696.996,404.124 697.5,409C 696.28,415.153 695.113,421.32 694,427.5C 692.692,429.641 691.192,431.641 689.5,433.5C 697.323,434.167 704.99,434.833 712.5,435.5C 695.167,435.5 677.833,435.5 660.5,435.5C 664.634,434.515 668.968,434.182 673.5,434.5C 674.873,434.657 676.207,434.49 677.5,434C 680.238,430.752 683.571,429.752 687.5,431C 689.061,430.059 690.395,428.892 691.5,427.5C 690.148,426.966 688.815,427.466 687.5,429C 684.475,429.361 681.475,429.861 678.5,430.5C 677.01,431.84 675.344,432.84 673.5,433.5C 674.028,429.788 674.862,426.121 676,422.5C 685.149,422.243 688.482,417.577 686,408.5C 682.359,404.549 680.359,399.883 680,394.5C 677.926,392.658 676.093,390.658 674.5,388.5C 672.331,384.817 671.331,380.817 671.5,376.5C 673.159,369.592 673.659,362.592 673,355.5C 671.833,353.167 670.667,350.833 669.5,348.5C 669.833,348.167 670.167,347.833 670.5,347.5C 672.992,350.789 674.825,354.456 676,358.5C 675.505,366.819 675.172,375.152 675,383.5C 681.884,396.052 683.717,395.386 680.5,381.5C 681.588,376.565 682.255,371.565 682.5,366.5C 682.54,362.018 681.874,357.684 680.5,353.5C 686.761,355.754 693.094,357.921 699.5,360C 704.904,360.772 710.238,360.439 715.5,359C 722.446,352.593 723.28,345.426 718,337.5C 715.116,334.315 711.949,331.482 708.5,329C 700.663,324.249 692.996,319.249 685.5,314C 682.412,311.089 680.412,307.589 679.5,303.5C 678.755,297.157 681.422,292.99 687.5,291C 692.871,290.324 698.204,290.491 703.5,291.5C 703.22,294.272 703.887,296.772 705.5,299C 717.192,305.379 719.525,303.379 712.5,293C 707.92,291.93 703.587,290.43 699.5,288.5 Z"/></g>
<g><path style="opacity:1" fill="#130f02" d="M 705.5,292.5 C 710.159,292.991 713.159,295.491 714.5,300C 708.92,300.586 705.92,298.086 705.5,292.5 Z"/></g>
<g><path style="opacity:1" fill="#c2a011" d="M 483.5,354.5 C 487.31,355.754 487.31,356.754 483.5,357.5C 483.5,356.5 483.5,355.5 483.5,354.5 Z"/></g>
<g><path style="opacity:1" fill="#868686" d="M 478.5,359.5 C 477.599,358.71 476.932,357.71 476.5,356.5C 477.249,355.469 477.915,354.302 478.5,353C 479.5,352.333 480.5,352.333 481.5,353C 478.855,354.287 477.855,356.453 478.5,359.5 Z"/></g>
<g><path style="opacity:1" fill="#141109" d="M 564.5,382.5 C 564.668,387.699 562.502,391.699 558,394.5C 556.254,398.327 554.254,401.993 552,405.5C 551.667,404.833 551.333,404.167 551,403.5C 548.428,408.36 546.428,413.36 545,418.5C 543.846,419.743 542.512,420.743 541,421.5C 539.768,426.736 536.935,430.902 532.5,434C 533.416,434.278 534.082,434.778 534.5,435.5C 517.325,435.17 500.325,435.503 483.5,436.5C 482.957,436.44 482.624,436.107 482.5,435.5C 489.803,434.503 497.137,434.169 504.5,434.5C 505.414,422.753 511.747,417.253 523.5,418C 524.333,417.167 525.167,416.333 526,415.5C 530.69,403.696 535.523,392.029 540.5,380.5C 541.32,378.86 542.153,377.193 543,375.5C 544.91,377.627 544.743,379.627 542.5,381.5C 540.526,383.428 539.026,385.761 538,388.5C 535.649,396.244 533.149,403.911 530.5,411.5C 529.263,412.965 528.263,414.632 527.5,416.5C 527.175,418.132 526.175,419.132 524.5,419.5C 520.446,420.103 516.446,420.936 512.5,422C 510.493,425.838 509.493,430.005 509.5,434.5C 510.5,434.5 511.5,434.5 512.5,434.5C 515.833,435.167 517.833,433.833 518.5,430.5C 517.312,428.738 515.645,427.738 513.5,427.5C 513.415,426.005 514.081,425.005 515.5,424.5C 520.543,429.427 525.876,429.76 531.5,425.5C 533.934,419.529 536.934,413.862 540.5,408.5C 539.743,407.227 539.077,407.227 538.5,408.5C 537.375,407.652 537.375,406.652 538.5,405.5C 543.153,394.202 544.986,394.202 544,405.5C 548.443,399.947 550.609,393.614 550.5,386.5C 547.348,385.959 544.848,386.959 543,389.5C 540.876,394.076 539.043,398.743 537.5,403.5C 535.546,408.065 533.046,412.398 530,416.5C 529.878,414.718 530.378,413.052 531.5,411.5C 534.747,401.495 538.747,391.829 543.5,382.5C 545.926,380.782 548.593,380.282 551.5,381C 553.599,383.409 555.266,386.076 556.5,389C 557.833,389.667 559.167,389.667 560.5,389C 561.729,386.381 561.396,383.881 559.5,381.5C 568.072,376.244 573.072,368.577 574.5,358.5C 574.833,359.833 575.167,361.167 575.5,362.5C 574.388,370.602 570.721,377.269 564.5,382.5 Z"/></g>
<g><path style="opacity:1" fill="#d8b313" d="M 494.5,360.5 C 496.301,361.719 497.301,363.552 497.5,366C 497.241,367.261 496.574,368.261 495.5,369C 499.353,369.662 499.353,370.496 495.5,371.5C 494.833,371.167 494.167,370.833 493.5,370.5C 494.417,367.242 494.751,363.909 494.5,360.5 Z"/></g>
<g><path style="opacity:1" fill="#ab8e12" d="M 523.5,358.5 C 523.833,358.5 524.167,358.5 524.5,358.5C 524.5,359.5 524.5,360.5 524.5,361.5C 520.629,361.185 516.962,361.518 513.5,362.5C 510.513,362.002 507.513,361.502 504.5,361C 501.77,359.768 501.937,358.935 505,358.5C 508.674,359.943 512.507,360.61 516.5,360.5C 519.269,360.471 521.603,359.805 523.5,358.5 Z"/></g>
<g><path style="opacity:1" fill="#cda912" d="M 485.5,364.5 C 487.176,365.183 487.843,366.517 487.5,368.5C 483.155,368.702 482.488,367.369 485.5,364.5 Z"/></g>
<g><path style="opacity:1" fill="#161209" d="M 673.5,391.5 C 674.793,393.296 676.293,394.963 678,396.5C 678.333,398.833 678.667,401.167 679,403.5C 684.721,407.667 685.888,412.834 682.5,419C 679.833,419.333 677.167,419.667 674.5,420C 673.776,422.67 672.109,424.17 669.5,424.5C 670.735,417.873 674.735,415.206 681.5,416.5C 681.938,413.107 681.105,410.107 679,407.5C 670.167,402.926 662.501,396.926 656,389.5C 653.651,392.017 651.151,394.35 648.5,396.5C 645.602,401.554 644.768,406.887 646,412.5C 641.608,420.225 636.441,427.392 630.5,434C 638.344,434.171 646.011,434.671 653.5,435.5C 636.167,435.5 618.833,435.5 601.5,435.5C 604.028,434.834 606.694,434.168 609.5,433.5C 608.181,431.468 608.181,429.468 609.5,427.5C 611.164,428.949 611.998,430.949 612,433.5C 612.756,430.208 614.589,429.208 617.5,430.5C 616.833,431.5 616.167,432.5 615.5,433.5C 617.322,434.429 618.655,433.762 619.5,431.5C 618.863,429.697 617.697,428.364 616,427.5C 615.333,426.5 615.333,425.5 616,424.5C 628.342,423.809 634.008,417.142 633,404.5C 635.31,402.801 637.143,400.801 638.5,398.5C 634.672,393.847 633.172,388.513 634,382.5C 635.333,381.167 636.667,379.833 638,378.5C 637.077,380.666 636.244,382.999 635.5,385.5C 636.07,392.067 639.404,394.067 645.5,391.5C 646.868,389.363 647.868,387.03 648.5,384.5C 650.154,389.73 648.321,393.397 643,395.5C 641.504,397.45 641.337,399.45 642.5,401.5C 644.369,397.126 647.202,393.459 651,390.5C 651.667,388.5 651.667,386.5 651,384.5C 647.948,380.784 645.781,376.618 644.5,372C 638.221,371.689 632.221,372.856 626.5,375.5C 607.909,382.349 588.909,384.015 569.5,380.5C 569.956,377.714 571.623,376.381 574.5,376.5C 583.419,378.382 592.419,378.882 601.5,378C 614.938,376.409 628.104,373.576 641,369.5C 643.547,369.762 646.047,370.262 648.5,371C 653.952,373.016 655.285,376.349 652.5,381C 652.78,382.395 653.447,383.562 654.5,384.5C 656.562,382.64 657.895,380.306 658.5,377.5C 659.981,378.48 661.315,379.647 662.5,381C 664.167,381.333 665.833,381.667 667.5,382C 670.119,384.784 672.119,387.951 673.5,391.5 Z"/></g>
<g><path style="opacity:1" fill="#ebc215" d="M 609.5,427.5 C 609.328,426.508 609.662,425.842 610.5,425.5C 610.56,426.043 610.893,426.376 611.5,426.5C 614.006,420.495 618.34,418.661 624.5,421C 626.333,419.167 628.167,417.333 630,415.5C 630.73,407.716 630.23,400.049 628.5,392.5C 628.071,388.256 629.071,384.422 631.5,381C 630.906,380.536 630.239,380.369 629.5,380.5C 628.248,378.999 627.248,377.332 626.5,375.5C 632.221,372.856 638.221,371.689 644.5,372C 645.781,376.618 647.948,380.784 651,384.5C 651.667,386.5 651.667,388.5 651,390.5C 647.202,393.459 644.369,397.126 642.5,401.5C 641.337,399.45 641.504,397.45 643,395.5C 648.321,393.397 650.154,389.73 648.5,384.5C 647.868,387.03 646.868,389.363 645.5,391.5C 639.404,394.067 636.07,392.067 635.5,385.5C 636.244,382.999 637.077,380.666 638,378.5C 636.667,379.833 635.333,381.167 634,382.5C 633.172,388.513 634.672,393.847 638.5,398.5C 637.143,400.801 635.31,402.801 633,404.5C 634.008,417.142 628.342,423.809 616,424.5C 615.333,425.5 615.333,426.5 616,427.5C 617.697,428.364 618.863,429.697 619.5,431.5C 618.655,433.762 617.322,434.429 615.5,433.5C 616.167,432.5 616.833,431.5 617.5,430.5C 614.589,429.208 612.756,430.208 612,433.5C 611.998,430.949 611.164,428.949 609.5,427.5 Z"/></g>
<g><path style="opacity:1" fill="#ceaa11" d="M 485.5,371.5 C 487.657,372.053 487.49,373.053 485,374.5C 484.667,375.833 484.333,377.167 484,378.5C 483.13,377.892 482.63,377.059 482.5,376C 483.315,374.357 484.315,372.857 485.5,371.5 Z"/></g>
<g><path style="opacity:1" fill="#bc9b10" d="M 649.5,373.5 C 651.476,374.427 651.809,375.76 650.5,377.5C 648.358,376.563 648.024,375.23 649.5,373.5 Z"/></g>
<g><path style="opacity:1" fill="#fcfcfc" d="M 626.5,375.5 C 627.248,377.332 628.248,378.999 629.5,380.5C 626.246,383.363 624.913,387.03 625.5,391.5C 627.185,399.424 627.685,407.424 627,415.5C 626.167,416.333 625.333,417.167 624.5,418C 621.486,418.128 618.486,418.128 615.5,418C 612.758,419.886 611.091,422.386 610.5,425.5C 609.662,425.842 609.328,426.508 609.5,427.5C 608.181,429.468 608.181,431.468 609.5,433.5C 606.694,434.168 604.028,434.834 601.5,435.5C 605.666,438.417 609.999,441.084 614.5,443.5C 603.321,443.828 592.321,443.495 581.5,442.5C 586.185,440.724 590.518,438.391 594.5,435.5C 576.833,434.167 559.167,434.167 541.5,435.5C 545.482,438.391 549.815,440.724 554.5,442.5C 543.833,443.833 533.167,443.833 522.5,442.5C 526.354,440.407 530.354,438.574 534.5,437C 535.738,436.31 535.738,435.81 534.5,435.5C 534.082,434.778 533.416,434.278 532.5,434C 536.935,430.902 539.768,426.736 541,421.5C 542.512,420.743 543.846,419.743 545,418.5C 546.428,413.36 548.428,408.36 551,403.5C 551.333,404.167 551.667,404.833 552,405.5C 554.254,401.993 556.254,398.327 558,394.5C 562.502,391.699 564.668,387.699 564.5,382.5C 566.167,381.833 567.833,381.167 569.5,380.5C 588.909,384.015 607.909,382.349 626.5,375.5 Z"/></g>
<g><path style="opacity:1" fill="#1d1911" d="M 629.5,380.5 C 630.239,380.369 630.906,380.536 631.5,381C 629.071,384.422 628.071,388.256 628.5,392.5C 630.23,400.049 630.73,407.716 630,415.5C 628.167,417.333 626.333,419.167 624.5,421C 618.34,418.661 614.006,420.495 611.5,426.5C 610.893,426.376 610.56,426.043 610.5,425.5C 611.091,422.386 612.758,419.886 615.5,418C 618.486,418.128 621.486,418.128 624.5,418C 625.333,417.167 626.167,416.333 627,415.5C 627.685,407.424 627.185,399.424 625.5,391.5C 624.913,387.03 626.246,383.363 629.5,380.5 Z"/></g>
<g><path style="opacity:1" fill="#f2c815" d="M 659.5,383.5 C 661.527,383.338 663.527,383.505 665.5,384C 669.361,389.028 673.028,394.194 676.5,399.5C 675.277,400.614 673.944,400.781 672.5,400C 666.897,397.45 662.397,393.617 659,388.5C 658.36,386.735 658.527,385.068 659.5,383.5 Z"/></g>
<g><path style="opacity:1" fill="#ebc214" d="M 538.5,405.5 C 537.662,405.158 537.328,404.492 537.5,403.5C 539.043,398.743 540.876,394.076 543,389.5C 544.848,386.959 547.348,385.959 550.5,386.5C 550.609,393.614 548.443,399.947 544,405.5C 544.986,394.202 543.153,394.202 538.5,405.5 Z"/></g>
<g><path style="opacity:1" fill="#d1ac12" d="M 542.5,381.5 C 543.167,381.5 543.5,381.833 543.5,382.5C 538.747,391.829 534.747,401.495 531.5,411.5C 531.167,411.5 530.833,411.5 530.5,411.5C 533.149,403.911 535.649,396.244 538,388.5C 539.026,385.761 540.526,383.428 542.5,381.5 Z"/></g>
<g><path style="opacity:1" fill="#fbfbfb" d="M 669.5,424.5 C 669.5,425.167 669.5,425.833 669.5,426.5C 669.259,428.898 669.926,430.898 671.5,432.5C 671.842,433.338 672.508,433.672 673.5,433.5C 673.5,433.833 673.5,434.167 673.5,434.5C 668.968,434.182 664.634,434.515 660.5,435.5C 664.347,438.593 668.68,440.926 673.5,442.5C 662.5,443.833 651.5,443.833 640.5,442.5C 645.315,440.928 649.648,438.595 653.5,435.5C 646.011,434.671 638.344,434.171 630.5,434C 636.441,427.392 641.608,420.225 646,412.5C 644.768,406.887 645.602,401.554 648.5,396.5C 651.151,394.35 653.651,392.017 656,389.5C 662.501,396.926 670.167,402.926 679,407.5C 681.105,410.107 681.938,413.107 681.5,416.5C 674.735,415.206 670.735,417.873 669.5,424.5 Z"/></g>
<g><path style="opacity:1" fill="#eac114" d="M 686.5,395.5 C 690.198,394.68 692.531,396.013 693.5,399.5C 692.747,405.804 692.247,412.137 692,418.5C 689.992,425.096 685.492,428.096 678.5,427.5C 678.5,426.5 678.5,425.5 678.5,424.5C 683.919,425.041 687.419,422.707 689,417.5C 689.296,414.294 689.796,411.128 690.5,408C 689.256,405.618 687.423,403.785 685,402.5C 684.167,399.829 684.667,397.496 686.5,395.5 Z"/></g>
<g><path style="opacity:1" fill="#e6be14" d="M 636.5,405.5 C 641.796,405.611 643.796,408.111 642.5,413C 640.975,414.009 639.308,414.509 637.5,414.5C 635.909,421.661 631.576,426.327 624.5,428.5C 623.833,429.5 623.167,430.5 622.5,431.5C 621.755,429.253 620.422,427.42 618.5,426C 624.763,426.285 629.596,423.785 633,418.5C 633.84,413.992 635.007,409.659 636.5,405.5 Z"/></g>
<g><path style="opacity:1" fill="#dcb615" d="M 674.5,388.5 C 676.093,390.658 677.926,392.658 680,394.5C 680.359,399.883 682.359,404.549 686,408.5C 688.482,417.577 685.149,422.243 676,422.5C 674.862,426.121 674.028,429.788 673.5,433.5C 672.508,433.672 671.842,433.338 671.5,432.5C 671.178,430.278 671.845,428.444 673.5,427C 672.207,426.51 670.873,426.343 669.5,426.5C 669.5,425.833 669.5,425.167 669.5,424.5C 672.109,424.17 673.776,422.67 674.5,420C 677.167,419.667 679.833,419.333 682.5,419C 685.888,412.834 684.721,407.667 679,403.5C 678.667,401.167 678.333,398.833 678,396.5C 676.293,394.963 674.793,393.296 673.5,391.5C 674.404,390.791 674.737,389.791 674.5,388.5 Z"/></g>
<g><path style="opacity:1" fill="#987e0f" d="M 537.5,403.5 C 537.328,404.492 537.662,405.158 538.5,405.5C 537.375,406.652 537.375,407.652 538.5,408.5C 536.576,410.695 534.909,413.028 533.5,415.5C 532.5,416.167 531.5,416.833 530.5,417.5C 529.391,417.443 528.391,417.11 527.5,416.5C 528.263,414.632 529.263,412.965 530.5,411.5C 530.833,411.5 531.167,411.5 531.5,411.5C 530.378,413.052 529.878,414.718 530,416.5C 533.046,412.398 535.546,408.065 537.5,403.5 Z"/></g>
<g><path style="opacity:1" fill="#cba711" d="M 539.5,413.5 C 542.956,414.536 543.29,416.203 540.5,418.5C 538.296,417.218 537.962,415.551 539.5,413.5 Z"/></g>
<g><path style="opacity:1" fill="#e6be14" d="M 513.5,427.5 C 513.167,428.167 512.833,428.833 512.5,429.5C 511.314,430.961 511.314,432.295 512.5,433.5C 512.5,433.833 512.5,434.167 512.5,434.5C 511.5,434.5 510.5,434.5 509.5,434.5C 509.493,430.005 510.493,425.838 512.5,422C 516.446,420.936 520.446,420.103 524.5,419.5C 526.175,419.132 527.175,418.132 527.5,416.5C 528.391,417.11 529.391,417.443 530.5,417.5C 529.375,419.129 528.041,420.629 526.5,422C 523.447,422.179 520.447,422.679 517.5,423.5C 526.149,426.947 531.482,424.28 533.5,415.5C 534.909,413.028 536.576,410.695 538.5,408.5C 539.077,407.227 539.743,407.227 540.5,408.5C 536.934,413.862 533.934,419.529 531.5,425.5C 525.876,429.76 520.543,429.427 515.5,424.5C 514.081,425.005 513.415,426.005 513.5,427.5 Z"/></g>
<g><path style="opacity:1" fill="#221b04" d="M 533.5,415.5 C 531.482,424.28 526.149,426.947 517.5,423.5C 520.447,422.679 523.447,422.179 526.5,422C 528.041,420.629 529.375,419.129 530.5,417.5C 531.5,416.833 532.5,416.167 533.5,415.5 Z"/></g>
<g><path style="opacity:1" fill="#100d05" d="M 669.5,426.5 C 670.873,426.343 672.207,426.51 673.5,427C 671.845,428.444 671.178,430.278 671.5,432.5C 669.926,430.898 669.259,428.898 669.5,426.5 Z"/></g>
<g><path style="opacity:1" fill="#d7b212" d="M 634.5,424.5 C 635.525,424.897 635.692,425.563 635,426.5C 632.667,428.833 630.333,431.167 628,433.5C 626.77,432.725 626.437,431.725 627,430.5C 630.209,429.321 632.709,427.321 634.5,424.5 Z"/></g>
<g><path style="opacity:1" fill="#151003" d="M 512.5,429.5 C 514.346,429.222 515.68,429.889 516.5,431.5C 515.68,433.111 514.346,433.778 512.5,433.5C 511.314,432.295 511.314,430.961 512.5,429.5 Z"/></g>
<g><path style="opacity:1" fill="#dfb813" d="M 536.5,421.5 C 537.376,421.369 538.043,421.702 538.5,422.5C 536.418,428.084 532.585,431.751 527,433.5C 525.338,433.612 524.171,432.946 523.5,431.5C 530.205,431.116 534.539,427.783 536.5,421.5 Z"/></g>
<g><path style="opacity:1" fill="#be9d11" d="M 673.5,434.5 C 673.5,434.167 673.5,433.833 673.5,433.5C 675.344,432.84 677.01,431.84 678.5,430.5C 681.475,429.861 684.475,429.361 687.5,429C 688.815,427.466 690.148,426.966 691.5,427.5C 690.395,428.892 689.061,430.059 687.5,431C 683.571,429.752 680.238,430.752 677.5,434C 676.207,434.49 674.873,434.657 673.5,434.5 Z"/></g>
<g><path style="opacity:1" fill="#9d820e" d="M 513.5,427.5 C 515.645,427.738 517.312,428.738 518.5,430.5C 517.833,433.833 515.833,435.167 512.5,434.5C 512.5,434.167 512.5,433.833 512.5,433.5C 514.346,433.778 515.68,433.111 516.5,431.5C 515.68,429.889 514.346,429.222 512.5,429.5C 512.833,428.833 513.167,428.167 513.5,427.5 Z"/></g>
<g><path style="opacity:1" fill="#111212" d="M 581.5,442.5 C 580.711,442.783 580.044,443.283 579.5,444C 592.549,444.818 604.216,444.651 614.5,443.5C 609.999,441.084 605.666,438.417 601.5,435.5C 618.833,435.5 636.167,435.5 653.5,435.5C 649.648,438.595 645.315,440.928 640.5,442.5C 639.711,442.783 639.044,443.283 638.5,444C 650.833,444.667 663.167,444.667 675.5,444C 674.956,443.283 674.289,442.783 673.5,442.5C 668.68,440.926 664.347,438.593 660.5,435.5C 677.833,435.5 695.167,435.5 712.5,435.5C 708.653,438.593 704.32,440.926 699.5,442.5C 698.711,442.783 698.044,443.283 697.5,444C 703.825,444.5 710.158,444.666 716.5,444.5C 717.477,447.287 717.81,450.287 717.5,453.5C 637.5,453.5 557.5,453.5 477.5,453.5C 477.19,450.287 477.523,447.287 478.5,444.5C 484.842,444.666 491.175,444.5 497.5,444C 496.956,443.283 496.289,442.783 495.5,442.5C 491.187,441.01 487.187,439.01 483.5,436.5C 500.325,435.503 517.325,435.17 534.5,435.5C 535.738,435.81 535.738,436.31 534.5,437C 530.354,438.574 526.354,440.407 522.5,442.5C 521.711,442.783 521.044,443.283 520.5,444C 532.5,444.667 544.5,444.667 556.5,444C 555.956,443.283 555.289,442.783 554.5,442.5C 549.815,440.724 545.482,438.391 541.5,435.5C 559.167,434.167 576.833,434.167 594.5,435.5C 590.518,438.391 586.185,440.724 581.5,442.5 Z"/></g>
<g><path style="opacity:1" fill="#f7f7f8" d="M 489.5,437.5 C 502.327,436.34 515.327,436.173 528.5,437C 523.956,439.519 519.289,441.852 514.5,444C 513.167,444.667 513.167,445.333 514.5,446C 530.5,446.667 546.5,446.667 562.5,446C 563.833,445.333 563.833,444.667 562.5,444C 557.554,442.194 552.888,439.861 548.5,437C 561.5,436.333 574.5,436.333 587.5,437C 583.112,439.861 578.446,442.194 573.5,444C 572.167,444.667 572.167,445.333 573.5,446C 589.5,446.667 605.5,446.667 621.5,446C 622.833,445.333 622.833,444.667 621.5,444C 616.802,441.651 612.136,439.318 607.5,437C 620.5,436.333 633.5,436.333 646.5,437C 642.112,439.861 637.446,442.194 632.5,444C 631.167,444.667 631.167,445.333 632.5,446C 648.844,446.833 665.177,446.666 681.5,445.5C 676.828,442.162 671.828,439.329 666.5,437C 679.5,436.333 692.5,436.333 705.5,437C 700.631,439.597 695.964,442.43 691.5,445.5C 699.472,446.498 707.472,446.831 715.5,446.5C 715.5,448.167 715.5,449.833 715.5,451.5C 636.833,451.5 558.167,451.5 479.5,451.5C 479.5,449.833 479.5,448.167 479.5,446.5C 487.507,446.666 495.507,446.5 503.5,446C 504.833,445.333 504.833,444.667 503.5,444C 498.687,442.093 494.02,439.926 489.5,437.5 Z"/></g>
<g><path style="opacity:1" fill="#888888" d="M 495.5,442.5 C 496.289,442.783 496.956,443.283 497.5,444C 491.175,444.5 484.842,444.666 478.5,444.5C 484.167,443.833 489.833,443.167 495.5,442.5 Z"/></g>
<g><path style="opacity:1" fill="#898989" d="M 522.5,442.5 C 533.167,443.833 543.833,443.833 554.5,442.5C 555.289,442.783 555.956,443.283 556.5,444C 544.5,444.667 532.5,444.667 520.5,444C 521.044,443.283 521.711,442.783 522.5,442.5 Z"/></g>
<g><path style="opacity:1" fill="#868686" d="M 581.5,442.5 C 592.321,443.495 603.321,443.828 614.5,443.5C 604.216,444.651 592.549,444.818 579.5,444C 580.044,443.283 580.711,442.783 581.5,442.5 Z"/></g>
<g><path style="opacity:1" fill="#858585" d="M 640.5,442.5 C 651.5,443.833 662.5,443.833 673.5,442.5C 674.289,442.783 674.956,443.283 675.5,444C 663.167,444.667 650.833,444.667 638.5,444C 639.044,443.283 639.711,442.783 640.5,442.5 Z"/></g>
<g><path style="opacity:1" fill="#848484" d="M 699.5,442.5 C 705.167,443.167 710.833,443.833 716.5,444.5C 710.158,444.666 703.825,444.5 697.5,444C 698.044,443.283 698.711,442.783 699.5,442.5 Z"/></g>
<g><path style="opacity:1" fill="#da0100" d="M -0.5,456.5 C 399.5,456.5 799.5,456.5 1199.5,456.5C 1199.5,532.833 1199.5,609.167 1199.5,685.5C 799.5,685.5 399.5,685.5 -0.5,685.5C -0.5,609.167 -0.5,532.833 -0.5,456.5 Z"/></g>
</svg>
